<svg
  class="c-brand__logo-mark"
  xmlns="http://www.w3.org/2000/svg"
  viewBox="0 15 40.1 35"
  aria-hidden="true"
  focusable="false"
>
  <path
    fill="currentColor"
    d="M16.40 50Q15.65 50 15.60 49.30L15.05 45.55Q15.05 45.45 14.95 45.35Q14.85 45.25 14.70 45.25L10.30 45.25Q10.15 45.25 10.05 45.35Q9.95 45.45 9.95 45.55L9.45 49.30Q9.40 50 8.65 50L0.80 50Q0 50 0.15 49.20L7.25 15.65Q7.40 15 8.10 15L17.20 15Q17.90 15 18.05 15.65L25.15 49.20L25.15 49.40Q25.15 50 24.45 50L16.40 50M11.05 37.75Q11.05 38.05 11.30 38.05L13.65 38.05Q14 38.05 13.90 37.75L12.55 28.75Q12.50 28.55 12.40 28.55Q12.30 28.55 12.25 28.75L11.05 37.75ZM30.20 15.15Q30.65 15 31.10 15L39.30 15Q39.65 15 39.85 15.20Q40.05 15.40 40.05 15.75L40.05 49.25Q40.05 49.60 39.85 49.80Q39.65 50 39.30 50L31.40 50Q31.05 50 30.85 49.80Q30.65 49.60 30.65 49.25L30.65 23.85Q30.65 23.55 30.35 23.55L27.05 23.55Q26.70 23.55 26.50 23.35Q26.30 23.15 26.30 22.80L26.30 17Q26.30 16.35 26.90 16.15L30.20 15.15Z"
  />
</svg>
